<?xml version="1.0" encoding="UTF-8"?>
<svg version="1.1" xmlns="http://www.w3.org/2000/svg" width="347" height="115">
<path d="M0 0 C2.1875 1.0625 2.1875 1.0625 4.1875 4.0625 C5.39563559 11.84514089 3.58602647 18.26616829 -0.91894531 24.62402344 C-3.01127017 27.44825174 -5.17421248 30.20903914 -7.375 32.94921875 C-9.69619908 35.9139554 -11.76803002 38.90587621 -13.8125 42.0625 C-11.23056023 42.73500524 -8.64717929 43.40067901 -6.0625 44.0625 C-4.96808594 44.34867188 -4.96808594 44.34867188 -3.8515625 44.640625 C-0.36678354 45.52765964 2.56873722 46.0625 6.1875 46.0625 C8.10993254 43.8768854 8.10993254 43.8768854 9.8125 40.9375 C10.50472656 39.84824219 11.19695312 38.75898437 11.91015625 37.63671875 C12.46147217 36.76345947 12.46147217 36.76345947 13.02392578 35.87255859 C26.64547188 14.68285176 26.64547188 14.68285176 35.1875 11.0625 C38.3125 10.75 38.3125 10.75 41.1875 11.0625 C43.92998706 15.17623058 43.89023625 18.23305729 43.1875 23.0625 C39.64698264 33.89029582 30.87721941 41.75653383 22.62109375 49.17578125 C20.78607669 51.59080371 20.90722298 53.10175553 21.1875 56.0625 C20.07375 56.35125 18.96 56.64 17.8125 56.9375 C9.56290332 60.01832283 3.88398506 68.13317896 -1.6953125 74.66015625 C-5.28362024 78.73176005 -9.02534532 82.66233563 -12.75097656 86.6081543 C-15.46472374 89.49424478 -18.10903337 92.38515129 -20.59765625 95.46875 C-22.8125 98.0625 -22.8125 98.0625 -25.125 98.9375 C-25.681875 98.97875 -26.23875 99.02 -26.8125 99.0625 C-25.53782667 94.81852797 -23.94112463 91.32376997 -21.58203125 87.578125 C-20.94330078 86.55976562 -20.30457031 85.54140625 -19.64648438 84.4921875 C-18.97939453 83.44289063 -18.31230469 82.39359375 -17.625 81.3125 C-16.97724609 80.27867188 -16.32949219 79.24484375 -15.66210938 78.1796875 C-11.56068491 71.67313201 -7.28692373 65.31817382 -2.8125 59.0625 C-7.11559075 59.29151603 -11.41197052 59.56675593 -15.70800781 59.90039062 C-17.69777286 60.05366255 -19.68871896 60.19137161 -21.6796875 60.328125 C-28.48097095 61.00094014 -32.87548866 61.71531799 -37.328125 67.09375 C-38.06289063 68.06828125 -38.06289063 68.06828125 -38.8125 69.0625 C-39.86751912 70.27737051 -40.9303869 71.48545861 -42 72.6875 C-42.57105469 73.35007812 -43.14210937 74.01265625 -43.73046875 74.6953125 C-46.37296141 77.69972254 -49.09082391 80.62991603 -51.8125 83.5625 C-59.73557774 92.0831096 -59.73557774 92.0831096 -67.125 101.0625 C-67.681875 101.7225 -68.23875 102.3825 -68.8125 103.0625 C-69.4725 103.0625 -70.1325 103.0625 -70.8125 103.0625 C-70.297397 97.74794522 -68.45085295 94.15626879 -65.75 89.6875 C-65.37294922 89.04683594 -64.99589844 88.40617187 -64.60742188 87.74609375 C-63.68410383 86.17995934 -62.74944607 84.62051966 -61.8125 83.0625 C-63.30826667 83.00131009 -63.30826667 83.00131009 -66.44458008 84.49609375 C-82.40649267 90.51830605 -102.38678508 89.01513197 -119.33349609 89.9375 C-123.10723406 90.14335487 -126.88077942 90.35264644 -130.65429688 90.5625 C-131.76518331 90.62423904 -131.76518331 90.62423904 -132.89851189 90.68722534 C-138.75671589 91.01394819 -144.61423888 91.35177961 -150.47140694 91.69656372 C-154.66496138 91.94232395 -158.85899507 92.17062398 -163.05423069 92.38568115 C-166.27006559 92.55511712 -169.48449662 92.74827835 -172.69921875 92.9375 C-173.8571846 92.99164063 -175.01515045 93.04578125 -176.20820618 93.1015625 C-183.14370283 93.5379754 -186.61568391 94.46091908 -191.32421875 99.765625 C-191.71222656 100.27609375 -192.10023438 100.7865625 -192.5 101.3125 C-193.6446875 102.67375 -193.6446875 102.67375 -194.8125 104.0625 C-195.4725 104.0625 -196.1325 104.0625 -196.8125 104.0625 C-195.60560745 100.95906201 -194.30653054 98.05056107 -192.8125 95.0625 C-199.4125 95.0625 -206.0125 95.0625 -212.8125 95.0625 C-212.8125 94.4025 -212.8125 93.7425 -212.8125 93.0625 C-211.81005249 93.01766479 -211.81005249 93.01766479 -210.78735352 92.97192383 C-201.6025046 92.31873349 -191.80286712 91.25461058 -185.18554688 84.30273438 C-180.50001885 78.04075803 -177.09198063 70.87820774 -173.69265747 63.86367798 C-170.46813155 57.21325487 -166.66895535 51.01343304 -162.75 44.75 C-161.59083669 42.85905967 -160.43311152 40.96723639 -159.27734375 39.07421875 C-158.45610467 37.73674853 -157.63465109 36.3994098 -156.8125 35.0625 C-160.97699641 34.68444669 -160.97699641 34.68444669 -164.6484375 36.34765625 C-165.41027344 37.22744141 -165.41027344 37.22744141 -166.1875 38.125 C-168.47408435 40.71059923 -170.85895729 43.00297687 -173.47265625 45.25 C-178.14862424 49.2972981 -182.51472726 53.61753757 -186.875 58 C-187.63876953 58.75990234 -188.40253906 59.51980469 -189.18945312 60.30273438 C-201.60175573 72.73627274 -212.62149088 86.4836212 -222.9375 100.6875 C-223.75371826 101.80584229 -223.75371826 101.80584229 -224.58642578 102.94677734 C-227.38689415 106.84904034 -229.80559721 110.67499527 -231.8125 115.0625 C-232.4725 115.0625 -233.1325 115.0625 -233.8125 115.0625 C-233.8125 99.55255941 -221.45312045 83.96027301 -213.8125 71.0625 C-216.30544946 73.54211818 -218.7824414 76.03112175 -221.21484375 78.5703125 C-245.27620456 103.41023814 -245.27620456 103.41023814 -260.578125 104.265625 C-264.01332821 103.9533338 -265.59599982 102.62532833 -267.8125 100.0625 C-271.3673699 93.89641658 -271.2995991 87.14327006 -269.875 80.3125 C-266.15658609 67.29805133 -257.52976734 56.53686756 -249.33837891 46.02197266 C-247.86525239 44.13024251 -246.40604089 42.2285186 -244.94921875 40.32421875 C-239.96925157 33.85542246 -234.78992042 27.7032295 -229.21875 21.7265625 C-226.74583765 18.98869525 -224.46884818 16.14856224 -222.1875 13.25 C-218.69261988 8.93861691 -214.97066535 4.40410826 -209.8125 2.0625 C-207.66015625 2.26171875 -207.66015625 2.26171875 -205.8125 3.0625 C-203.69884199 7.39549891 -202.82718264 12.31126629 -203.8125 17.0625 C-206.62663412 22.88532567 -210.39439066 27.13720929 -214.875 31.75 C-216.22563531 33.16761166 -217.57589309 34.58558311 -218.92578125 36.00390625 C-219.58787598 36.69500488 -220.2499707 37.38610352 -220.93212891 38.09814453 C-232.63884953 50.32773089 -243.00029967 63.28605828 -252.8125 77.0625 C-241.70364979 72.29222903 -232.41137983 65.30186633 -222.8125 58.0625 C-222.20196777 57.60262695 -221.59143555 57.14275391 -220.96240234 56.66894531 C-217.21704418 53.83653836 -213.51097203 50.95595635 -209.8125 48.0625 C-208.66166533 47.17030585 -207.51061768 46.27838637 -206.359375 45.38671875 C-191.1659058 33.87452372 -191.1659058 33.87452372 -177.81640625 20.3828125 C-174.91860003 17.02745793 -171.88905012 13.81637373 -168.8125 10.625 C-168.23056885 9.99682373 -167.6486377 9.36864746 -167.04907227 8.72143555 C-163.06643851 4.63913796 -160.55162472 3.23086718 -154.8125 3.0625 C-152.33464277 6.72541938 -151.32285831 9.6734185 -150.8125 14.0625 C-147.96268156 14.59684096 -146.54584102 14.85671607 -143.8125 14.0625 C-141.54760193 11.83178907 -139.68435909 9.49571872 -137.8046875 6.93359375 C-137.14726562 6.31613281 -136.48984375 5.69867187 -135.8125 5.0625 C-134.1625 5.3925 -132.5125 5.7225 -130.8125 6.0625 C-130.8125 9.6925 -130.8125 13.3225 -130.8125 17.0625 C-129.77843018 17.17319824 -128.74436035 17.28389648 -127.67895508 17.39794922 C-123.82967627 17.81194028 -119.98148445 18.23537614 -116.13354492 18.66162109 C-114.4704136 18.84452507 -112.80700124 19.02489269 -111.14331055 19.20263672 C-108.74709302 19.45909288 -106.35204615 19.72476049 -103.95703125 19.9921875 C-103.2172554 20.06936005 -102.47747955 20.14653259 -101.71528625 20.2260437 C-92.60972342 21.26527658 -92.60972342 21.26527658 -89.8125 24.0625 C-90.15249345 29.16240174 -90.52026483 32.97558737 -93.8125 37.0625 C-99.18502821 41.5233801 -104.94131152 42.49150989 -111.6875 43.8125 C-112.75742188 44.03292969 -113.82734375 44.25335938 -114.9296875 44.48046875 C-117.55513163 45.01962246 -120.18241575 45.54654741 -122.8125 46.0625 C-116.96829009 48.15815422 -110.97350103 49.59869464 -104.95703125 51.1015625 C-103.81844162 51.38728119 -102.67985199 51.67299988 -101.50675964 51.96737671 C-99.10742685 52.56864215 -96.70778698 53.16868342 -94.30786133 53.76757812 C-90.62666866 54.6870832 -86.94709101 55.61286146 -83.26757812 56.5390625 C-80.93499123 57.12277717 -78.60231206 57.70612328 -76.26953125 58.2890625 C-74.61483574 58.70619003 -74.61483574 58.70619003 -72.92671204 59.13174438 C-71.90522568 59.38555878 -70.88373932 59.63937317 -69.83129883 59.90087891 C-68.93228348 60.1257901 -68.03326813 60.35070129 -67.10700989 60.58242798 C-64.71379621 61.16489597 -64.71379621 61.16489597 -61.8125 61.0625 C-61.77382813 60.2271875 -61.77382813 60.2271875 -61.734375 59.375 C-61.18353825 51.96374187 -59.14824711 46.74006377 -54.25 41.125 C-49.54413871 37.14311737 -44.49742576 38.05762996 -38.70507812 38.36523438 C-35.44223849 38.44688096 -33.31828801 38.41547926 -30.6015625 36.51953125 C-28.25717335 33.29983524 -26.16944539 29.97864765 -24.125 26.5625 C-7.94275293 0.17650562 -7.94275293 0.17650562 0 0 Z M-144.98828125 36.5546875 C-146.52282381 38.67108271 -146.52282381 38.67108271 -147.8125 42.0625 C-142.75074846 43.8096529 -139.20189317 42.04525485 -134.5 40.125 C-133.75943359 39.83431641 -133.01886719 39.54363281 -132.25585938 39.24414062 C-130.43689349 38.52828953 -128.6240512 37.79691265 -126.8125 37.0625 C-126.8125 36.7325 -126.8125 36.4025 -126.8125 36.0625 C-136.26484681 34.25065774 -136.26484681 34.25065774 -144.98828125 36.5546875 Z M-170 70.1875 C-170.90395508 71.47140625 -170.90395508 71.47140625 -171.82617188 72.78125 C-173.51507265 75.19131696 -175.17103423 77.61994864 -176.8125 80.0625 C-177.24643066 80.70799805 -177.68036133 81.35349609 -178.12744141 82.01855469 C-179.02689412 83.36358243 -179.92058826 84.7124599 -180.8125 86.0625 C-170.91646237 85.45818185 -161.2208212 83.95505854 -151.453125 82.33984375 C-149.81124375 82.07182427 -148.16929505 81.80421777 -146.52728271 81.53700256 C-142.24582154 80.83913292 -137.9652884 80.13572837 -133.68493652 79.43109131 C-129.30093046 78.71042299 -124.91605292 77.99509785 -120.53125 77.27929688 C-111.95748088 75.87886932 -103.38468657 74.47258203 -94.8125 73.0625 C-95.3075 72.0725 -95.3075 72.0725 -95.8125 71.0625 C-98.43484515 70.27394988 -98.43484515 70.27394988 -101.671875 69.6953125 C-102.9196875 69.45119629 -104.1675 69.20708008 -105.453125 68.95556641 C-106.82276202 68.69871827 -108.19255791 68.44271603 -109.5625 68.1875 C-110.59310547 67.99157257 -110.59310547 67.99157257 -111.64453125 67.79168701 C-121.99796459 65.82670765 -132.37439888 64.13775896 -142.8125 62.6875 C-144.01487305 62.52008301 -145.21724609 62.35266602 -146.45605469 62.18017578 C-148.64900193 61.88922348 -150.84491667 61.61940012 -153.04370117 61.37646484 C-155.264453 61.12464518 -157.47384911 60.77356972 -159.67578125 60.390625 C-164.9943589 61.52984711 -167.08618847 65.85332451 -170 70.1875 Z M-56.8125 64.0625 C-56.4825 64.7225 -56.1525 65.3825 -55.8125 66.0625 C-55.67834528 68.7348621 -55.76931459 71.38500488 -55.8125 74.0625 C-52.47692368 71.0719833 -50.66166079 68.13065373 -48.8125 64.0625 C-51.4525 64.0625 -54.0925 64.0625 -56.8125 64.0625 Z M-56.8125 74.0625 C-55.8125 76.0625 -55.8125 76.0625 -55.8125 76.0625 Z " fill="#333" transform="translate(270.8125,-0.0625)"/>
</svg>
