<?xml version="1.0" encoding="UTF-8"?>
<svg version="1.1" xmlns="http://www.w3.org/2000/svg" width="298" height="99">
<path d="M0 0 C2.36550548 3.69610231 2.42493712 6.67980593 2 11 C-0.46106784 19.98289762 -7.50269065 28.50269065 -14 35 C-8.46458058 37.09448302 -2.81235021 38.02782755 3 39 C3.72703125 38.00033203 3.72703125 38.00033203 4.46875 36.98046875 C5.88248923 35.0365773 7.29798613 33.09396345 8.71484375 31.15234375 C10.17854474 29.13318699 11.63025607 27.10525084 13.06640625 25.06640625 C23.18939657 10.78328292 23.18939657 10.78328292 29.8125 8.9375 C33 9 33 9 35 11 C36.07806469 17.00311811 35.19684309 22.25467562 32.046875 27.43359375 C28.64056156 31.70448675 24.66759291 35.4461052 20.63818359 39.12792969 C20.02797363 39.7005957 19.41776367 40.27326172 18.7890625 40.86328125 C18.22912598 41.37157471 17.66918945 41.87986816 17.09228516 42.40356445 C15.74376784 43.98647059 15.74376784 43.98647059 16.32568359 46.19604492 C16.54820801 46.7913501 16.77073242 47.38665527 17 48 C16.030625 48.144375 15.06125 48.28875 14.0625 48.4375 C6.37365144 50.62765686 1.04462007 58.84253237 -3.98046875 64.69140625 C-6.64490845 67.73721643 -9.38096348 70.71343699 -12.125 73.6875 C-12.87970581 74.50782715 -12.87970581 74.50782715 -13.6496582 75.34472656 C-19.91846375 82.12638747 -19.91846375 82.12638747 -23 85 C-23.66 85 -24.32 85 -25 85 C-23.54941363 79.85121542 -21.24022991 75.82316438 -18.375 71.375 C-17.93494629 70.68148437 -17.49489258 69.98796875 -17.04150391 69.2734375 C-13.12095576 63.12045317 -9.09438624 57.03864786 -5 51 C-18.66442309 50.32259599 -18.66442309 50.32259599 -31.2734375 54.41015625 C-33.04746507 56.17214291 -34.51856155 57.98747984 -36 60 C-37.05349786 61.21618993 -38.11646783 62.42422284 -39.1875 63.625 C-39.75726563 64.28757812 -40.32703125 64.95015625 -40.9140625 65.6328125 C-43.05544194 68.06291726 -45.25435722 70.4287985 -47.46704102 72.79370117 C-52.3251117 77.9892721 -56.88925723 83.17644774 -61 89 C-61.66 88.67 -62.32 88.34 -63 88 C-62.41734728 83.57676318 -60.73233789 80.4844136 -58.4375 76.6875 C-57.79683594 75.61886719 -57.15617188 74.55023438 -56.49609375 73.44921875 C-56.00238281 72.64097656 -55.50867188 71.83273438 -55 71 C-55.54001648 71.20387329 -56.08003296 71.40774658 -56.63641357 71.61779785 C-62.26804554 73.6343991 -67.50466613 74.63045949 -73.453125 75.09375 C-74.35154114 75.17137573 -75.24995728 75.24900146 -76.17559814 75.32897949 C-87.68454547 76.28521105 -99.21888252 76.8848037 -110.75 77.5 C-117.3106175 77.85229351 -123.87008421 78.21307185 -130.42773438 78.6171875 C-134.93880037 78.89441707 -139.44633347 79.09487161 -143.96289062 79.2578125 C-146.20969027 79.36868552 -148.45643749 79.48062741 -150.703125 79.59375 C-151.73540222 79.61626831 -152.76767944 79.63878662 -153.83123779 79.6619873 C-159.47683647 79.9852579 -159.47683647 79.9852579 -164.18493652 82.87231445 C-166.09253547 85.038096 -166.09253547 85.038096 -167.67059326 87.29943848 C-168.3286496 88.14121643 -168.3286496 88.14121643 -169 89 C-169.66 89 -170.32 89 -171 89 C-169.125 83.25 -169.125 83.25 -168 81 C-173.61 81 -179.22 81 -185 81 C-184.67 80.34 -184.34 79.68 -184 79 C-181.99047852 78.48510742 -181.99047852 78.48510742 -179.37890625 78.10546875 C-178.44369141 77.95400391 -177.50847656 77.80253906 -176.54492188 77.64648438 C-174.5621885 77.34134859 -172.57776263 77.04700821 -170.59179688 76.76367188 C-169.18704102 76.53067383 -169.18704102 76.53067383 -167.75390625 76.29296875 C-166.89095947 76.1643042 -166.0280127 76.03563965 -165.13891602 75.90307617 C-162.79790782 75.19019202 -162.79790782 75.19019202 -161.93212891 72.82202148 C-161.62452637 71.89075439 -161.31692383 70.9594873 -161 70 C-159.81079575 67.83286704 -158.58409206 65.68612263 -157.33203125 63.5546875 C-156.79517952 62.63890427 -156.79517952 62.63890427 -156.2474823 61.70462036 C-155.4901284 60.41441268 -154.73108599 59.12519484 -153.97045898 57.83691406 C-152.82967374 55.90409723 -151.69467097 53.9679812 -150.56054688 52.03125 C-146.18992786 44.58856293 -141.69741077 37.24281964 -137 30 C-140.61886587 29.74005379 -140.61886587 29.74005379 -143.73828125 31.28515625 C-144.25777344 31.87167969 -144.77726562 32.45820312 -145.3125 33.0625 C-147.65288012 35.58329486 -149.99096592 37.91241137 -152.625 40.125 C-161.3697534 47.6765122 -169.67027162 56.06881837 -177 65 C-177.42603516 65.51755859 -177.85207031 66.03511719 -178.29101562 66.56835938 C-183.94186152 73.45795633 -189.4333851 80.44405732 -194.625 87.6875 C-195.03854736 88.26322754 -195.45209473 88.83895508 -195.87817383 89.43212891 C-197.83108102 92.19453768 -199.60346724 94.91411309 -201 98 C-201.66 98 -202.32 98 -203 98 C-202.77318196 89.9528905 -199.22374006 83.96604336 -195.4375 77 C-194.82197266 75.84371094 -194.20644531 74.68742187 -193.57226562 73.49609375 C-192.05931651 70.65784813 -190.53506477 67.82632701 -189 65 C-190.33385405 64.88299106 -190.33385405 64.88299106 -191.93359375 66.90625 C-192.75988281 67.7621875 -193.58617187 68.618125 -194.4375 69.5 C-202.78650619 77.89644372 -212.74433091 87.66844047 -224.875 89.625 C-228.69649333 88.86070133 -230.36171913 87.86441923 -233 85 C-236.1633705 78.22134893 -235.41288771 71.69830617 -233.15234375 64.78125 C-226.52811385 48.79327817 -213.67196463 34.62682157 -202.43261719 21.66357422 C-200.88088007 19.86167634 -199.34950465 18.0437178 -197.8203125 16.22265625 C-196.7552646 14.96089001 -195.69016169 13.69917019 -194.625 12.4375 C-194.13708984 11.85339355 -193.64917969 11.26928711 -193.14648438 10.66748047 C-190.3528027 7.3790443 -187.57982095 4.4690502 -184 2 C-181.3125 2 -181.3125 2 -179 3 C-176.56690787 6.80904767 -176.59011133 9.92743312 -177.1640625 14.30859375 C-178.64776208 19.08555173 -182.00080992 22.07775735 -185.50927734 25.51757812 C-188.42072636 28.41281534 -191.1999311 31.43511616 -194 34.4375 C-194.60505371 35.08332031 -195.21010742 35.72914062 -195.83349609 36.39453125 C-204.24050988 45.40936326 -211.68721126 55.09402377 -219 65 C-203.21466638 61.99499383 -185.92904408 43.54644485 -173.90625 33.62109375 C-173.18050781 33.02482178 -172.45476562 32.4285498 -171.70703125 31.81420898 C-170.25289353 30.61888847 -168.80227234 29.41927517 -167.35546875 28.21508789 C-166.35966797 27.39705688 -166.35966797 27.39705688 -165.34375 26.5625 C-164.74755859 26.06878906 -164.15136719 25.57507813 -163.53710938 25.06640625 C-162 24 -162 24 -160 24 C-159.731875 23.4225 -159.46375 22.845 -159.1875 22.25 C-157.97070811 19.94449957 -156.69666121 17.97943808 -155 16 C-154.34 16 -153.68 16 -153 16 C-153 15.34 -153 14.68 -153 14 C-151.1557762 12.14173389 -149.16326353 10.5093725 -147.16015625 8.82421875 C-145.84674963 7.71506705 -144.5554328 6.57802051 -143.30859375 5.39453125 C-140.92252814 3.17044398 -139.56639611 2.02574528 -136.25 1.875 C-134 3 -134 3 -132.6875 5.3125 C-132 8 -132 8 -132 12 C-129.29987653 12.67350769 -129.29987653 12.67350769 -126 12 C-124.00772002 10.04628028 -122.36943083 7.99246986 -120.7109375 5.75 C-120.14632812 5.1725 -119.58171875 4.595 -119 4 C-117.68 4 -116.36 4 -115 4 C-113.39274365 7.21451269 -113.94251815 10.43612536 -114 14 C-113.04633545 14.11069824 -112.0926709 14.22139648 -111.11010742 14.33544922 C-107.57005185 14.74852962 -104.03133337 15.17222154 -100.49291992 15.59912109 C-98.96168827 15.78235648 -97.43010979 15.96271737 -95.89819336 16.14013672 C-93.69547446 16.39575207 -91.49421243 16.66170073 -89.29296875 16.9296875 C-88.60849167 17.00686005 -87.92401459 17.08403259 -87.21879578 17.1635437 C-83.77068057 17.59389728 -81.95329708 18.03113528 -79 20 C-79.46501356 24.74313827 -79.96133669 28.25231525 -83 32 C-88.08897163 35.35190167 -92.45549194 36.81958703 -98.4375 37.75 C-99.53481445 37.93755859 -99.53481445 37.93755859 -100.65429688 38.12890625 C-102.43418399 38.43137073 -104.21684546 38.7174353 -106 39 C-102.20814412 41.21491549 -98.09868869 42.06887635 -93.8671875 43.05859375 C-93.07531036 43.24841324 -92.28343323 43.43823273 -91.46755981 43.63380432 C-88.93778654 44.23967335 -86.40654434 44.83907801 -83.875 45.4375 C-80.55903414 46.22429059 -77.24386372 47.01429771 -73.9296875 47.80859375 C-73.14019714 47.99779388 -72.35070679 48.18699402 -71.53729248 48.38192749 C-65.96421912 49.73182547 -60.45485178 51.22511952 -55 53 C-54.97486328 52.31429932 -54.94972656 51.62859863 -54.92382812 50.92211914 C-54.63808656 44.70536012 -53.44030351 39.56686798 -49 35 C-44.27402569 31.94280193 -41.84027708 32.01700316 -36.4375 33.0625 C-32.67080418 33.38633914 -32.67080418 33.38633914 -29 32 C-24.06016977 27.04652383 -20.87974913 20.52312625 -17.46777344 14.47949219 C-8.75995305 -0.23052508 -8.75995305 -0.23052508 0 0 Z M-127.5 33 C-127.995 33.99 -128.49 34.98 -129 36 C-123.04492601 35.6083965 -118.37180176 34.62875405 -113 32 C-116.22476564 29.85015624 -119.30369505 29.47468202 -123.09375 29.53125 C-125.42257505 29.90407506 -125.42257505 29.90407506 -127.5 33 Z M-143.95043945 53.6965332 C-144.49917725 54.47343506 -145.04791504 55.25033691 -145.61328125 56.05078125 C-146.22107422 56.89447266 -146.82886719 57.73816406 -147.45507812 58.60742188 C-148.06802734 59.50009766 -148.68097656 60.39277344 -149.3125 61.3125 C-149.94478516 62.19357422 -150.57707031 63.07464844 -151.22851562 63.98242188 C-154.64433864 68.71255539 -154.64433864 68.71255539 -157 74 C-142.53882619 71.99062778 -128.11182477 69.80558879 -113.70043945 67.46557617 C-110.38262594 66.92861915 -107.06341354 66.40089791 -103.74414062 65.87304688 C-101.61970026 65.52921011 -99.49534772 65.18483021 -97.37109375 64.83984375 C-95.8931559 64.606959 -95.8931559 64.606959 -94.38536072 64.36936951 C-93.01596092 64.14387169 -93.01596092 64.14387169 -91.61889648 63.91381836 C-90.8206395 63.78518906 -90.02238251 63.65655975 -89.19993591 63.52403259 C-86.90318299 62.97693784 -85.06202442 62.13611473 -83 61 C-96.53879006 58.26557288 -110.08695738 55.72387745 -123.75 53.6875 C-125.45216675 53.43081543 -125.45216675 53.43081543 -127.1887207 53.16894531 C-128.78913208 52.93643066 -128.78913208 52.93643066 -130.421875 52.69921875 C-131.82324707 52.49558716 -131.82324707 52.49558716 -133.25292969 52.2878418 C-139.0092907 51.34519572 -139.0092907 51.34519572 -143.95043945 53.6965332 Z M-51 56 C-50.34 57.98 -49.68 59.96 -49 62 C-45.75283938 58.51216486 -45.75283938 58.51216486 -45 54 C-48.18490007 53.7226499 -48.18490007 53.7226499 -51 56 Z M-186 59 C-185 61 -185 61 -185 61 Z " fill="#333" transform="translate(235,1)"/>
</svg>
